<svg width="21" height="20" viewBox="0 0 21 20" fill="none" xmlns="http://www.w3.org/2000/svg">
<g clip-path="url(#clip0_751_346)">
<path d="M20.2803 10C20.2803 4.75329 16.027 0.5 10.7803 0.5C5.53357 0.5 1.28027 4.75329 1.28027 10C1.28027 15.2467 5.53357 19.5 10.7803 19.5C16.027 19.5 20.2803 15.2467 20.2803 10Z" fill="#2D374B" stroke="#96BEDC"/>
<mask id="mask0_751_346" style="mask-type:alpha" maskUnits="userSpaceOnUse" x="0" y="0" width="21" height="20">
<path d="M20.7803 10C20.7803 4.47715 16.3031 0 10.7803 0C5.25743 0 0.780273 4.47715 0.780273 10C0.780273 15.5228 5.25743 20 10.7803 20C16.3031 20 20.7803 15.5228 20.7803 10Z" fill="#C4C4C4"/>
</mask>
<g mask="url(#mask0_751_346)">
<path d="M10.8418 13.2894L15.4857 20.5922L18.3469 18.9341L12.7326 10.081L10.8418 13.2894ZM20.1807 15.7674L20.1785 14.4389L14.9597 6.29102L13.3106 9.08909L18.3756 17.2536L19.927 16.3546C20.0022 16.2937 20.0636 16.2176 20.1074 16.1314C20.1511 16.0451 20.1762 15.9506 20.1809 15.8539L20.1807 15.7674Z" fill="#28A0F0"/>
<path d="M20.0303 10C20.0303 4.89137 15.8889 0.75 10.7803 0.75C5.67164 0.75 1.53027 4.89137 1.53027 10C1.53027 15.1086 5.67164 19.25 10.7803 19.25C15.8889 19.25 20.0303 15.1086 20.0303 10Z" fill="url(#paint0_linear_751_346)" fill-opacity="0.3" stroke="#96BEDC" stroke-width="1.5"/>
<path d="M1.03969 20.1579L-1.15317 18.8955L-1.32031 18.3002L6.31304 6.44268C6.83433 5.59175 7.96997 5.31768 9.02426 5.3326L10.2616 5.36525L1.03969 20.1579ZM14.4698 5.36525L11.2088 5.3771L2.38012 19.9669L4.9589 21.4517L5.66019 20.2623L14.4698 5.36525Z" fill="white"/>
</g>
</g>
<defs>
<linearGradient id="paint0_linear_751_346" x1="0.780274" y1="-2.46473e-07" x2="10.7803" y2="20" gradientUnits="userSpaceOnUse">
<stop stop-color="white"/>
<stop offset="1" stop-color="white" stop-opacity="0"/>
</linearGradient>
<clipPath id="clip0_751_346">
<rect width="20" height="20" fill="white" transform="translate(0.780273)"/>
</clipPath>
</defs>
</svg>
