<svg width="20" height="20" viewBox="0 0 20 20" fill="none" xmlns="http://www.w3.org/2000/svg">
<g clip-path="url(#clip0_751_338)">
<path d="M16.4284 3.57227H3.57129V16.4294H16.4284V3.57227Z" fill="white"/>
<path fill-rule="evenodd" clip-rule="evenodd" d="M10 20C4.63357 20.0057 0 15.3664 0 10C0 4.42572 4.31643 -0.00570877 10 5.52015e-06C15.6786 0.00571981 20 4.42572 20 10C20 15.3607 15.3607 19.9943 10 20ZM7.16357 14.6886H5.225C4.81786 14.6886 4.61714 14.6886 4.49429 14.61C4.42933 14.5678 4.37524 14.5109 4.33639 14.4439C4.29755 14.3769 4.27505 14.3016 4.27071 14.2243C4.26357 14.08 4.36357 13.9029 4.565 13.55L9.35071 5.11501C9.55429 4.75715 9.65786 4.57786 9.78786 4.51143C9.92714 4.44001 10.0943 4.44001 10.2343 4.51143C10.3643 4.57786 10.4671 4.75715 10.6707 5.11501L11.6543 6.83215L11.6593 6.84143C11.8793 7.22572 11.9907 7.42001 12.04 7.62501C12.0939 7.84896 12.0939 8.08248 12.04 8.30643C11.99 8.51286 11.88 8.70929 11.6571 9.09929L9.14286 13.5421L9.13643 13.5543C8.915 13.9414 8.80286 14.1379 8.64786 14.2857C8.4795 14.4471 8.27501 14.5659 8.05143 14.6321C7.84786 14.6886 7.62 14.6886 7.16357 14.6886ZM12.0579 14.6886H14.835C15.245 14.6886 15.4507 14.6886 15.5736 14.6079C15.6389 14.5656 15.6933 14.5084 15.7322 14.4409C15.771 14.3735 15.7933 14.2978 15.7971 14.22C15.8043 14.08 15.7057 13.91 15.5129 13.5771C15.5062 13.5657 15.4995 13.5543 15.4929 13.5429L14.1014 11.1629L14.0857 11.1364C13.89 10.8057 13.7914 10.6386 13.6643 10.5743C13.5956 10.5393 13.5196 10.5211 13.4425 10.5211C13.3654 10.5211 13.2894 10.5393 13.2207 10.5743C13.0929 10.6407 12.99 10.815 12.7864 11.1657L11.4007 13.545L11.3957 13.5536C11.1929 13.9036 11.0914 14.0786 11.0986 14.2221C11.1086 14.3793 11.1893 14.5243 11.3221 14.61C11.4421 14.6886 11.6479 14.6886 12.0579 14.6886Z" fill="#E84142"/>
</g>
<defs>
<clipPath id="clip0_751_338">
<rect width="20" height="20" fill="white"/>
</clipPath>
</defs>
</svg>
