<svg width="25" height="24" viewBox="0 0 25 24" fill="none" xmlns="http://www.w3.org/2000/svg">
<g clip-path="url(#clip0_751_406)">
<path d="M20.4051 4.28516H4.97656V19.7137H20.4051V4.28516Z" fill="white"/>
<path fill-rule="evenodd" clip-rule="evenodd" d="M12.6904 24C6.25072 24.0069 0.69043 18.4397 0.69043 12C0.69043 5.31086 5.87014 -0.00685052 12.6904 6.62418e-06C19.5047 0.00686377 24.6904 5.31086 24.6904 12C24.6904 18.4329 19.1233 23.9931 12.6904 24ZM9.28672 17.6263H6.96043C6.47186 17.6263 6.231 17.6263 6.08357 17.532C6.00563 17.4814 5.94072 17.4131 5.8941 17.3326C5.84749 17.2522 5.82049 17.162 5.81529 17.0691C5.80672 16.896 5.92672 16.6834 6.16843 16.26L11.9113 6.13801C12.1556 5.70858 12.2799 5.49344 12.4359 5.41372C12.603 5.32801 12.8036 5.32801 12.9716 5.41372C13.1276 5.49344 13.251 5.70858 13.4953 6.13801L14.6756 8.19858L14.6816 8.20972C14.9456 8.67086 15.0793 8.90401 15.1384 9.15001C15.2031 9.41875 15.2031 9.69898 15.1384 9.96772C15.0784 10.2154 14.9464 10.4511 14.679 10.9191L11.6619 16.2506L11.6541 16.2651C11.3884 16.7297 11.2539 16.9654 11.0679 17.1429C10.8658 17.3365 10.6204 17.479 10.3521 17.5586C10.1079 17.6263 9.83443 17.6263 9.28672 17.6263ZM15.1599 17.6263H18.4924C18.9844 17.6263 19.2313 17.6263 19.3787 17.5294C19.4571 17.4787 19.5224 17.41 19.569 17.3291C19.6157 17.2482 19.6424 17.1573 19.647 17.064C19.6556 16.896 19.5373 16.692 19.3059 16.2926C19.2978 16.2789 19.2898 16.2652 19.2819 16.2514L17.6121 13.3954L17.5933 13.3637C17.3584 12.9669 17.2401 12.7663 17.0876 12.6891C17.0051 12.6472 16.9139 12.6253 16.8214 12.6253C16.7289 12.6253 16.6377 12.6472 16.5553 12.6891C16.4019 12.7689 16.2784 12.978 16.0341 13.3989L14.3713 16.254L14.3653 16.2643C14.1219 16.6843 14.0001 16.8943 14.0087 17.0666C14.0207 17.2551 14.1176 17.4291 14.277 17.532C14.421 17.6263 14.6679 17.6263 15.1599 17.6263Z" fill="#E84142"/>
</g>
<defs>
<clipPath id="clip0_751_406">
<rect width="24" height="24" fill="white" transform="translate(0.69043)"/>
</clipPath>
</defs>
</svg>
