<svg width="21" height="20" viewBox="0 0 21 20" fill="none" xmlns="http://www.w3.org/2000/svg">
<g clip-path="url(#clip0_751_360)">
<path d="M10.5303 20C16.0531 20 20.5303 15.5228 20.5303 10C20.5303 4.47715 16.0531 0 10.5303 0C5.00743 0 0.530273 4.47715 0.530273 10C0.530273 15.5228 5.00743 20 10.5303 20Z" fill="#F0B90B"/>
<path fill-rule="evenodd" clip-rule="evenodd" d="M14.1091 9.47852L14.1018 7.92433H14.1075L12.7878 7.14723L10.5266 8.48102L8.27897 7.14723L6.96016 7.92433V9.47852L9.22143 10.8058V13.4669L10.5346 14.2368L11.8478 13.4669V10.8058L14.1091 9.47852ZM10.5273 3.16602L6.95936 5.27046L8.27254 6.04755L10.5273 4.71377L12.7887 6.04755L14.1018 5.27046L10.5273 3.16602ZM6.01769 12.6834L6.01045 10.0288L4.69807 9.25243V13.4678L8.27253 15.5649V14.0108L6.01769 12.6834ZM6.01045 8.92102V7.37409L7.33007 6.59699L6.01045 5.81989L4.69727 6.59699V8.14394L6.01045 8.92102ZM10.5273 5.81989L9.21418 6.59699L10.5273 7.37409L11.847 6.59699L10.5273 5.81989ZM6.95936 10.579V12.1332L8.27254 12.9031V11.3561L6.95936 10.579ZM10.5273 15.3445L9.21418 14.5674V16.1144L10.5273 16.8915L11.847 16.1144V14.5674L10.5273 15.3445ZM15.0435 5.81989L13.7303 6.59699L15.0435 7.37409V8.92102L16.3631 8.14394V6.59699L15.0435 5.81989ZM15.0435 12.6834L12.7894 14.01V15.5642L16.3639 13.467V9.25168L15.0508 10.0288L15.0435 12.6834ZM14.1023 12.1332L12.7887 12.903V11.3561L14.1023 10.579V12.1332Z" fill="white"/>
</g>
<defs>
<clipPath id="clip0_751_360">
<rect width="20" height="20" fill="white" transform="translate(0.530273)"/>
</clipPath>
</defs>
</svg>
