<svg width="255" height="43" viewBox="0 0 255 43" fill="none" xmlns="http://www.w3.org/2000/svg">
<path d="M0 3.5V39.5H9.6884L13.3409 35.5438L16.9831 31.5877H7.44944V11.4123H17.5506V30.9849L21.2753 26.9521L25 22.9192V3.5H0Z" fill="white"/>
<path d="M72.0839 12.43C72.2109 12.0998 72.2744 11.833 72.2744 11.6297C72.2744 11.274 72.1093 11.02 71.779 10.8675C71.4487 10.6897 70.877 10.55 70.064 10.4483C69.7592 10.4229 69.6067 10.1816 69.6067 9.72423C69.6067 9.67341 69.6067 9.6226 69.6067 9.57179C69.6321 9.49557 69.6448 9.41935 69.6448 9.34313L69.6829 9.03825C69.9116 9.06365 70.1911 9.08906 70.5214 9.11447C70.8516 9.13988 71.2073 9.16528 71.5884 9.19069C71.9949 9.19069 72.3887 9.20339 72.7698 9.2288C73.1763 9.2288 73.5447 9.2288 73.875 9.2288C74.6118 9.2288 75.3105 9.21609 75.9711 9.19069C76.6571 9.16528 77.2414 9.11447 77.7241 9.03825L77.7623 9.34313C77.7877 9.41935 77.8004 9.49557 77.8004 9.57179C77.8004 9.64801 77.8004 9.71153 77.8004 9.76234C77.8004 10.2451 77.6479 10.4991 77.343 10.5245C76.53 10.6008 75.9457 10.7405 75.59 10.9438C75.2597 11.1216 74.9929 11.4519 74.7897 11.9346L65.3765 34.4195C65.2495 34.4449 65.1478 34.4576 65.0716 34.4576C64.9954 34.4576 64.9065 34.4576 64.8049 34.4576C64.6016 34.4576 64.4492 34.4195 64.3475 34.3433C64.2713 34.2671 64.1824 34.0892 64.0808 33.8098L55.163 11.7441C55.0868 11.5662 54.9979 11.4138 54.8963 11.2867C54.82 11.1343 54.693 11.0073 54.5152 10.9056C54.3373 10.804 54.0959 10.7278 53.7911 10.677C53.5116 10.6008 53.1305 10.5373 52.6478 10.4864C52.3175 10.461 52.1523 10.1943 52.1523 9.68612C52.1523 9.6099 52.1523 9.50827 52.1523 9.38124C52.1523 9.2288 52.1777 9.11447 52.2286 9.03825C52.6097 9.06365 53.0416 9.08906 53.5243 9.11447C54.007 9.13988 54.4898 9.16528 54.9725 9.19069C55.4806 9.19069 55.9633 9.20339 56.4207 9.2288C56.9034 9.2288 57.3226 9.2288 57.6783 9.2288C58.5167 9.2288 59.4313 9.21609 60.4222 9.19069C61.4131 9.13987 62.3023 9.08906 63.0899 9.03825C63.1407 9.16528 63.1661 9.29231 63.1661 9.41935C63.1661 9.54638 63.1661 9.64801 63.1661 9.72423C63.1661 10.1816 63.0137 10.4229 62.7088 10.4483C61.8958 10.5245 61.3241 10.6516 60.9939 10.8294C60.6636 11.0073 60.4984 11.2486 60.4984 11.5535C60.4984 11.7314 60.5365 11.9346 60.6128 12.1633L66.1768 27.2167L72.0839 12.43ZM91.478 25.6161H83.4749L81.4932 30.9134C81.4169 31.0404 81.3661 31.1802 81.3407 31.3326C81.3153 31.485 81.3026 31.5994 81.3026 31.6756C81.3026 31.9551 81.4296 32.1837 81.6837 32.3616C81.9632 32.5394 82.5094 32.6919 83.3224 32.8189C83.6781 32.8697 83.856 33.1111 83.856 33.543C83.856 33.7208 83.8306 33.9368 83.7798 34.1908C83.0938 34.14 82.3697 34.0892 81.6075 34.0384C80.8453 34.013 80.0958 34.0003 79.359 34.0003C78.8509 34.0003 78.3173 34.013 77.7584 34.0384C77.1994 34.0638 76.577 34.1146 75.891 34.1908C75.8402 34.0892 75.8148 33.9749 75.8148 33.8479C75.8148 33.7208 75.8148 33.6192 75.8148 33.543C75.8148 33.0603 75.9799 32.8062 76.3102 32.7808C77.0978 32.6283 77.6568 32.4632 77.987 32.2854C78.3427 32.1075 78.6222 31.8026 78.8255 31.3707L88.01 9.41935C88.2132 8.98743 88.5181 8.77148 88.9246 8.77148C89.0516 8.77148 89.1787 8.78419 89.3057 8.8096C89.4327 8.8096 89.5725 8.82229 89.7249 8.8477L98.9094 31.485C99.0619 31.8661 99.354 32.1583 99.786 32.3616C100.218 32.5394 100.688 32.6665 101.196 32.7427C101.577 32.8189 101.768 33.073 101.768 33.5049C101.768 33.7081 101.742 33.9368 101.692 34.1908C100.879 34.14 100.078 34.0892 99.2905 34.0384C98.5029 34.013 97.7661 34.0003 97.0801 34.0003C96.7244 34.0003 96.2925 34.0003 95.7844 34.0003C95.2763 34.0257 94.7554 34.0511 94.2219 34.0765C93.6884 34.1019 93.1548 34.1146 92.6213 34.1146C92.1131 34.14 91.6812 34.1654 91.3255 34.1908C91.2747 34.0892 91.2493 33.9749 91.2493 33.8479C91.2493 33.7208 91.2493 33.6192 91.2493 33.543C91.2493 33.3143 91.2874 33.1492 91.3636 33.0476C91.4653 32.9205 91.5669 32.8443 91.6685 32.8189C92.3291 32.6919 92.8118 32.5521 93.1167 32.3997C93.447 32.2218 93.6121 31.9678 93.6121 31.6375C93.6121 31.485 93.574 31.2945 93.4978 31.0658L91.478 25.6161ZM90.7539 23.7106L87.5145 15.1359L84.199 23.7106H90.7539ZM114.209 30.761C114.209 31.2945 114.552 31.6502 115.238 31.828C115.924 32.0059 117.054 32.0948 118.63 32.0948H120.078C120.713 32.0948 121.259 32.0313 121.717 31.9043C122.199 31.7518 122.618 31.5104 122.974 31.1802C123.33 30.8499 123.647 30.4307 123.927 29.9225C124.232 29.389 124.524 28.7538 124.803 28.017C124.88 27.8138 125.07 27.7122 125.375 27.7122C125.502 27.7122 125.655 27.7503 125.832 27.8265C126.01 27.9027 126.188 27.9789 126.366 28.0551C126.163 28.8682 125.972 29.7574 125.794 30.7228C125.642 31.6629 125.502 32.5902 125.375 33.5049C125.35 33.8098 125.261 34.0003 125.108 34.0765C124.981 34.1527 124.842 34.1908 124.689 34.1908C124.486 34.1908 124.194 34.1781 123.813 34.1527C123.457 34.1273 123.063 34.1019 122.631 34.0765C122.199 34.0765 121.755 34.0638 121.297 34.0384C120.865 34.013 120.484 34.0003 120.154 34.0003H111.503C110.766 34.0003 109.915 34.013 108.95 34.0384C108.01 34.0892 107.159 34.14 106.396 34.1908C106.346 34.0892 106.32 33.9622 106.32 33.8098C106.32 33.6319 106.32 33.5049 106.32 33.4287C106.32 33.0476 106.447 32.8443 106.701 32.8189C107.667 32.641 108.353 32.4505 108.759 32.2472C109.191 32.044 109.407 31.6883 109.407 31.1802V12.0871C109.407 11.833 109.382 11.6297 109.331 11.4773C109.28 11.2995 109.178 11.147 109.026 11.02C108.873 10.8929 108.632 10.7913 108.302 10.7151C107.997 10.6135 107.578 10.5245 107.044 10.4483C106.79 10.3721 106.663 10.1562 106.663 9.80046C106.663 9.72424 106.663 9.6099 106.663 9.45746C106.663 9.30502 106.689 9.16528 106.739 9.03825C107.552 9.08906 108.416 9.13987 109.331 9.19069C110.245 9.21609 111.058 9.2288 111.77 9.2288C112.126 9.2288 112.532 9.2288 112.989 9.2288C113.447 9.20339 113.917 9.19069 114.399 9.19069C114.908 9.16528 115.403 9.13988 115.886 9.11447C116.394 9.08906 116.851 9.06365 117.258 9.03825C117.283 9.16528 117.296 9.30502 117.296 9.45746C117.321 9.6099 117.334 9.72424 117.334 9.80046C117.334 10.1562 117.207 10.3721 116.953 10.4483C115.86 10.6008 115.124 10.804 114.742 11.0581C114.387 11.2867 114.209 11.6551 114.209 12.1633V30.761ZM145.204 25.6161H137.201L135.219 30.9134C135.143 31.0404 135.092 31.1802 135.067 31.3326C135.042 31.485 135.029 31.5994 135.029 31.6756C135.029 31.9551 135.156 32.1837 135.41 32.3616C135.689 32.5394 136.236 32.6919 137.049 32.8189C137.404 32.8697 137.582 33.1111 137.582 33.543C137.582 33.7208 137.557 33.9368 137.506 34.1908C136.82 34.14 136.096 34.0892 135.334 34.0384C134.572 34.013 133.822 34.0003 133.085 34.0003C132.577 34.0003 132.044 34.013 131.485 34.0384C130.926 34.0638 130.303 34.1146 129.617 34.1908C129.566 34.0892 129.541 33.9749 129.541 33.8479C129.541 33.7208 129.541 33.6192 129.541 33.543C129.541 33.0603 129.706 32.8062 130.036 32.7808C130.824 32.6283 131.383 32.4632 131.713 32.2854C132.069 32.1075 132.348 31.8026 132.552 31.3707L141.736 9.41935C141.939 8.98743 142.244 8.77148 142.651 8.77148C142.778 8.77148 142.905 8.78419 143.032 8.8096C143.159 8.8096 143.299 8.82229 143.451 8.8477L152.636 31.485C152.788 31.8661 153.08 32.1583 153.512 32.3616C153.944 32.5394 154.414 32.6665 154.922 32.7427C155.303 32.8189 155.494 33.073 155.494 33.5049C155.494 33.7081 155.469 33.9368 155.418 34.1908C154.605 34.14 153.804 34.0892 153.017 34.0384C152.229 34.013 151.492 34.0003 150.806 34.0003C150.451 34.0003 150.019 34.0003 149.511 34.0003C149.003 34.0257 148.482 34.0511 147.948 34.0765C147.415 34.1019 146.881 34.1146 146.348 34.1146C145.839 34.14 145.407 34.1654 145.052 34.1908C145.001 34.0892 144.976 33.9749 144.976 33.8479C144.976 33.7208 144.976 33.6192 144.976 33.543C144.976 33.3143 145.014 33.1492 145.09 33.0476C145.192 32.9205 145.293 32.8443 145.395 32.8189C146.055 32.6919 146.538 32.5521 146.843 32.3997C147.173 32.2218 147.338 31.9678 147.338 31.6375C147.338 31.485 147.3 31.2945 147.224 31.0658L145.204 25.6161ZM144.48 23.7106L141.241 15.1359L137.925 23.7106H144.48ZM180.016 25.6923V12.1633C180.016 11.6043 179.825 11.2105 179.444 10.9819C179.063 10.7532 178.39 10.5754 177.424 10.4483C177.094 10.3721 176.929 10.1307 176.929 9.72423C176.929 9.64801 176.929 9.54638 176.929 9.41935C176.929 9.29231 176.954 9.16528 177.005 9.03825C177.64 9.11447 178.263 9.16528 178.873 9.19069C179.482 9.21609 180.194 9.2288 181.007 9.2288C181.82 9.2288 182.518 9.21609 183.103 9.19069C183.687 9.16528 184.272 9.11447 184.856 9.03825C184.881 9.16528 184.894 9.29231 184.894 9.41935C184.919 9.54638 184.932 9.64801 184.932 9.72423C184.932 10.1562 184.78 10.3975 184.475 10.4483C183.636 10.5754 183.065 10.7532 182.76 10.9819C182.455 11.2105 182.303 11.5789 182.303 12.0871V34.3814C182.201 34.4068 182.023 34.4195 181.769 34.4195C181.54 34.4449 181.388 34.4576 181.312 34.4576C181.134 34.4576 180.943 34.4068 180.74 34.3052C180.537 34.229 180.321 34.0511 180.092 33.7716L165.077 14.7166V31.1802C165.077 31.4342 165.089 31.6502 165.115 31.828C165.166 31.9805 165.267 32.1202 165.42 32.2472C165.598 32.3489 165.839 32.4505 166.144 32.5521C166.474 32.6283 166.906 32.7173 167.44 32.8189C167.567 32.8443 167.668 32.9078 167.744 33.0094C167.846 33.0857 167.897 33.2635 167.897 33.543C167.897 33.7208 167.872 33.9368 167.821 34.1908C167.186 34.14 166.588 34.0892 166.03 34.0384C165.471 34.013 164.823 34.0003 164.086 34.0003C163.349 34.0003 162.638 34.013 161.952 34.0384C161.291 34.0892 160.681 34.14 160.122 34.1908C160.072 34.0892 160.046 33.9749 160.046 33.8479C160.046 33.7208 160.046 33.6192 160.046 33.543C160.046 33.2889 160.084 33.1111 160.161 33.0094C160.262 32.9078 160.377 32.8443 160.504 32.8189C161.418 32.6665 162.028 32.4759 162.333 32.2472C162.638 32.0186 162.79 31.6629 162.79 31.1802V11.8965C162.79 11.49 162.65 11.1851 162.371 10.9819C162.117 10.7532 161.52 10.5754 160.58 10.4483C160.275 10.3721 160.122 10.1307 160.122 9.72423C160.122 9.67341 160.122 9.6226 160.122 9.57179C160.122 9.49557 160.135 9.41935 160.161 9.34313L160.199 9.03825C160.554 9.06365 160.897 9.08906 161.228 9.11447C161.558 9.11447 161.888 9.12718 162.219 9.15259C162.777 9.178 163.336 9.20339 163.895 9.2288C164.48 9.2288 164.95 9.2288 165.305 9.2288C166.042 9.2288 166.525 9.26691 166.754 9.34313C166.982 9.39394 167.186 9.50827 167.363 9.68612L180.016 25.6923ZM204.31 11.1343V31.1802C204.31 31.4342 204.323 31.6502 204.348 31.828C204.399 31.9805 204.5 32.1202 204.653 32.2472C204.805 32.3743 205.021 32.4886 205.301 32.5902C205.58 32.6665 205.974 32.7427 206.482 32.8189C206.863 32.8951 207.054 33.1111 207.054 33.4668C207.054 33.543 207.041 33.6573 207.016 33.8098C207.016 33.9622 207.003 34.0892 206.978 34.1908C206.165 34.14 205.288 34.0892 204.348 34.0384C203.433 34.013 202.62 34.0003 201.909 34.0003C201.172 34.0003 200.346 34.013 199.432 34.0384C198.543 34.0892 197.691 34.14 196.878 34.1908C196.828 34.0892 196.789 33.9622 196.764 33.8098C196.764 33.6573 196.764 33.543 196.764 33.4668C196.764 33.2889 196.789 33.1492 196.84 33.0476C196.916 32.9205 197.094 32.8316 197.374 32.7808C198.314 32.6537 198.898 32.4886 199.127 32.2854C199.381 32.0567 199.508 31.6883 199.508 31.1802V11.1343H196.154C195.443 11.1343 194.833 11.2105 194.325 11.363C193.842 11.49 193.41 11.706 193.029 12.0108C192.674 12.2903 192.343 12.6714 192.038 13.1541C191.759 13.6115 191.467 14.1704 191.162 14.831C191.06 15.0596 190.87 15.174 190.59 15.174C190.438 15.174 190.26 15.1486 190.057 15.0977C189.853 15.0215 189.701 14.958 189.599 14.9072C189.777 14.2974 189.93 13.7639 190.057 13.3066C190.184 12.8239 190.285 12.3538 190.362 11.8965C190.463 11.3122 190.539 10.7913 190.59 10.334C190.641 9.87667 190.705 9.54638 190.781 9.34313C190.882 9.11447 191.086 9.00014 191.391 9.00014C191.67 9.00014 192.216 9.03825 193.029 9.11447C193.868 9.19069 194.871 9.2288 196.04 9.2288H207.778C208.921 9.2288 209.899 9.19069 210.712 9.11447C211.551 9.03825 212.122 9.00014 212.427 9.00014C212.707 9.00014 212.91 9.11447 213.037 9.34313C213.113 9.54638 213.164 9.87667 213.189 10.334C213.24 10.7913 213.329 11.3122 213.456 11.8965C213.532 12.3538 213.621 12.8239 213.723 13.3066C213.85 13.7639 214.015 14.2974 214.218 14.9072C214.091 14.958 213.926 15.0215 213.723 15.0977C213.545 15.1486 213.38 15.174 213.228 15.174C212.948 15.174 212.745 15.0596 212.618 14.831C212.313 14.1704 212.008 13.6115 211.703 13.1541C211.424 12.6714 211.093 12.2903 210.712 12.0108C210.357 11.706 209.925 11.49 209.417 11.363C208.934 11.2105 208.349 11.1343 207.664 11.1343H204.31ZM226.529 31.1802C226.529 31.4342 226.541 31.6502 226.567 31.828C226.617 31.9805 226.719 32.1202 226.872 32.2472C227.049 32.3743 227.291 32.4886 227.596 32.5902C227.926 32.6665 228.358 32.7427 228.891 32.8189C229.145 32.8697 229.272 33.0857 229.272 33.4668C229.272 33.543 229.26 33.6573 229.234 33.8098C229.234 33.9622 229.222 34.0892 229.196 34.1908C228.383 34.14 227.507 34.0892 226.567 34.0384C225.652 34.013 224.839 34.0003 224.128 34.0003C223.391 34.0003 222.565 34.013 221.65 34.0384C220.736 34.0892 219.872 34.14 219.059 34.1908C219.008 34.0892 218.983 33.9622 218.983 33.8098C218.983 33.6573 218.983 33.543 218.983 33.4668C218.983 33.0603 219.11 32.8443 219.364 32.8189C219.897 32.7427 220.317 32.6665 220.622 32.5902C220.952 32.4886 221.193 32.3743 221.346 32.2472C221.498 32.1202 221.6 31.9805 221.65 31.828C221.701 31.6502 221.727 31.4342 221.727 31.1802V12.0871C221.727 11.833 221.701 11.6297 221.65 11.4773C221.6 11.2995 221.498 11.147 221.346 11.02C221.193 10.8929 220.952 10.7913 220.622 10.7151C220.317 10.6135 219.897 10.5245 219.364 10.4483C219.11 10.3721 218.983 10.1562 218.983 9.80046C218.983 9.72424 218.983 9.6099 218.983 9.45746C218.983 9.30502 219.008 9.16528 219.059 9.03825C219.872 9.08906 220.736 9.13987 221.65 9.19069C222.565 9.21609 223.391 9.2288 224.128 9.2288C224.839 9.2288 225.652 9.21609 226.567 9.19069C227.507 9.13987 228.383 9.08906 229.196 9.03825C229.222 9.16528 229.234 9.30502 229.234 9.45746C229.26 9.6099 229.272 9.72424 229.272 9.80046C229.272 10.1562 229.145 10.3721 228.891 10.4483C228.358 10.5245 227.926 10.6135 227.596 10.7151C227.291 10.7913 227.049 10.8929 226.872 11.02C226.719 11.147 226.617 11.2995 226.567 11.4773C226.541 11.6297 226.529 11.833 226.529 12.0871V31.1802ZM251.476 15.4026C251.247 15.4788 251.006 15.517 250.752 15.517C250.396 15.517 250.142 15.4534 249.989 15.3264C249.837 15.174 249.735 15.0215 249.685 14.8691C249.1 13.4209 248.338 12.3792 247.398 11.7441C246.483 11.1089 245.251 10.7913 243.701 10.7913C242.482 10.7913 241.44 11.0962 240.576 11.706C239.738 12.2903 239.319 13.1922 239.319 14.4118C239.319 15.3518 239.636 16.114 240.271 16.6984C240.932 17.2573 241.745 17.7527 242.71 18.1847C243.701 18.6166 244.756 19.0358 245.874 19.4423C247.017 19.8488 248.071 20.3569 249.037 20.9667C250.028 21.5764 250.841 22.3513 251.476 23.2914C252.136 24.2314 252.467 25.4383 252.467 26.9118C252.467 27.8773 252.301 28.8173 251.971 29.732C251.641 30.6466 251.12 31.4596 250.409 32.171C249.697 32.857 248.795 33.4159 247.703 33.8479C246.61 34.2544 245.302 34.4576 243.777 34.4576C242.101 34.4576 240.602 34.2798 239.281 33.9241C237.959 33.543 236.867 33.1365 236.003 32.7046C235.927 31.6121 235.8 30.545 235.622 29.5033C235.47 28.4362 235.292 27.4073 235.088 26.4164C235.342 26.3148 235.635 26.264 235.965 26.264C236.27 26.264 236.498 26.3275 236.651 26.4545C236.803 26.5561 236.93 26.7467 237.032 27.0262C237.362 27.9916 237.731 28.83 238.137 29.5414C238.544 30.2274 239.014 30.7991 239.547 31.2564C240.081 31.6883 240.691 32.0059 241.377 32.2091C242.088 32.4124 242.901 32.514 243.816 32.514C244.603 32.514 245.276 32.4124 245.835 32.2091C246.394 31.9805 246.852 31.6883 247.207 31.3326C247.563 30.9769 247.83 30.5577 248.008 30.075C248.186 29.5922 248.274 29.0968 248.274 28.5887C248.274 27.4962 247.957 26.6451 247.322 26.0353C246.712 25.4001 245.937 24.8793 244.997 24.4728C244.082 24.0409 243.079 23.6471 241.986 23.2914C240.919 22.9103 239.916 22.4403 238.976 21.8813C238.061 21.297 237.286 20.5602 236.651 19.6709C236.041 18.7563 235.736 17.5368 235.736 16.0124C235.736 14.9961 235.914 14.0561 236.27 13.1922C236.651 12.303 237.197 11.5408 237.909 10.9056C238.62 10.2451 239.471 9.72423 240.462 9.34313C241.478 8.96203 242.634 8.77148 243.93 8.77148C244.997 8.77148 246.064 8.88581 247.131 9.11447C248.224 9.34313 249.456 9.72423 250.828 10.2578C250.879 11.02 250.955 11.8838 251.056 12.8493C251.184 13.7893 251.323 14.6404 251.476 15.4026Z" fill="white"/>
</svg>
