<svg width="15" height="12" viewBox="0 0 15 12" fill="none" xmlns="http://www.w3.org/2000/svg">
<path d="M12.6267 1.6368C12.6229 1.62937 12.6165 1.62356 12.6088 1.62039C11.7153 1.21044 10.7724 0.918106 9.80365 0.750717C9.79485 0.749081 9.78576 0.750261 9.77767 0.75409C9.76958 0.757919 9.7629 0.764202 9.75858 0.772045C9.63019 1.00508 9.51363 1.24445 9.40936 1.48923C8.36514 1.33072 7.30298 1.33072 6.25875 1.48923C6.1538 1.24383 6.03537 1.0044 5.90403 0.772045C5.89952 0.764373 5.89281 0.758234 5.88477 0.75443C5.87673 0.750626 5.86772 0.749332 5.85893 0.750717C4.89012 0.917754 3.94714 1.21011 3.05375 1.62041C3.0461 1.62365 3.03965 1.62919 3.03528 1.63626C1.24866 4.30433 0.759239 6.90681 0.999333 9.47706C1.00001 9.48336 1.00194 9.48946 1.00502 9.49499C1.0081 9.50053 1.01227 9.50539 1.01726 9.50929C2.05759 10.2796 3.22122 10.8675 4.45847 11.2481C4.46719 11.2507 4.47649 11.2506 4.48513 11.2478C4.49378 11.2449 4.50135 11.2395 4.50682 11.2322C4.77256 10.8707 5.00802 10.4878 5.21082 10.0875C5.2136 10.082 5.21519 10.076 5.21549 10.0698C5.21578 10.0637 5.21476 10.0576 5.2125 10.0518C5.21025 10.0461 5.2068 10.0409 5.20239 10.0366C5.19799 10.0323 5.19272 10.029 5.18693 10.0269C4.81563 9.88479 4.45616 9.71352 4.1119 9.51468C4.10565 9.511 4.1004 9.50584 4.09661 9.49965C4.09282 9.49347 4.09062 9.48644 4.09019 9.4792C4.08976 9.47196 4.09112 9.46472 4.09415 9.45813C4.09718 9.45154 4.10179 9.4458 4.10757 9.44141C4.1798 9.38729 4.25208 9.331 4.32106 9.27414C4.32719 9.26909 4.3346 9.26585 4.34247 9.26479C4.35034 9.26373 4.35835 9.26489 4.36559 9.26814C6.62096 10.2974 9.0627 10.2974 11.2914 9.26814C11.2986 9.26469 11.3067 9.26337 11.3147 9.26433C11.3227 9.2653 11.3302 9.26851 11.3365 9.2736C11.4055 9.33046 11.4777 9.38729 11.5505 9.44141C11.5563 9.44575 11.561 9.45146 11.564 9.45803C11.5671 9.46459 11.5685 9.47182 11.5681 9.47906C11.5678 9.4863 11.5656 9.49334 11.5619 9.49955C11.5581 9.50576 11.5529 9.51096 11.5467 9.51468C11.2032 9.7152 10.8434 9.88635 10.4712 10.0263C10.4654 10.0285 10.4601 10.0319 10.4557 10.0363C10.4514 10.0407 10.448 10.0459 10.4457 10.0517C10.4435 10.0574 10.4426 10.0636 10.4429 10.0698C10.4432 10.076 10.4449 10.082 10.4477 10.0875C10.6539 10.4856 10.889 10.868 11.1512 11.2316C11.1565 11.2391 11.164 11.2447 11.1727 11.2476C11.1814 11.2506 11.1908 11.2507 11.1995 11.248C12.439 10.8688 13.6047 10.2807 14.6463 9.50929C14.6514 9.50559 14.6556 9.50084 14.6587 9.49538C14.6618 9.48991 14.6637 9.48385 14.6642 9.4776C14.9517 6.50612 14.183 3.92497 12.6267 1.6368ZM5.54764 7.91204C4.86861 7.91204 4.30911 7.28891 4.30911 6.52363C4.30911 5.75835 4.85775 5.13517 5.54764 5.13517C6.24291 5.13517 6.797 5.76376 6.78615 6.52358C6.78615 7.28891 6.23747 7.91204 5.54764 7.91204ZM10.1269 7.91204C9.44785 7.91204 8.88835 7.28891 8.88835 6.52363C8.88835 5.75835 9.437 5.13517 10.1269 5.13517C10.8222 5.13517 11.3762 5.76376 11.3654 6.52358C11.3654 7.28891 10.8222 7.91204 10.1269 7.91204Z" fill="white"/>
</svg>
