<svg width="8" height="215" viewBox="0 0 8 215" fill="none" xmlns="http://www.w3.org/2000/svg">
<path d="M4 0.613249L1.11325 3.5L4 6.38675L6.88675 3.5L4 0.613249ZM3.64644 214.854C3.8417 215.049 4.15828 215.049 4.35354 214.854L7.53552 211.672C7.73079 211.476 7.73079 211.16 7.53552 210.964C7.34026 210.769 7.02368 210.769 6.82842 210.964L3.99999 213.793L1.17156 210.964C0.976302 210.769 0.659719 210.769 0.464457 210.964C0.269195 211.16 0.269195 211.476 0.464457 211.672L3.64644 214.854ZM3.5 3.5L3.5 8.29545L4.5 8.29545L4.5 3.5L3.5 3.5ZM3.5 17.8864L3.5 27.4773L4.5 27.4773L4.5 17.8864L3.5 17.8864ZM3.5 37.0682L3.5 46.6591L4.5 46.6591L4.5 37.0682L3.5 37.0682ZM3.5 56.25L3.5 65.8409L4.5 65.8409L4.5 56.25L3.5 56.25ZM3.5 75.4318L3.5 85.0227L4.5 85.0227L4.5 75.4318L3.5 75.4318ZM3.5 94.6136L3.5 104.205L4.5 104.205L4.5 94.6136L3.5 94.6136ZM3.5 113.795L3.49999 123.386L4.49999 123.386L4.5 113.795L3.5 113.795ZM3.49999 132.977L3.49999 142.568L4.49999 142.568L4.49999 132.977L3.49999 132.977ZM3.49999 152.159L3.49999 161.75L4.49999 161.75L4.49999 152.159L3.49999 152.159ZM3.49999 171.341L3.49999 180.932L4.49999 180.932L4.49999 171.341L3.49999 171.341ZM3.49999 190.523L3.49999 200.114L4.49999 200.114L4.49999 190.523L3.49999 190.523ZM3.49999 209.705L3.49999 214.5L4.49999 214.5L4.49999 209.705L3.49999 209.705Z" fill="#FF8A06"/>
</svg>
