<svg width="15" height="13" viewBox="0 0 15 13" fill="none" xmlns="http://www.w3.org/2000/svg">
<path d="M4.71187 12.5632C10.3725 12.5632 13.4691 7.87284 13.4691 3.81252C13.4691 3.68127 13.4691 3.54815 13.4634 3.4169C14.0663 2.98048 14.5866 2.44017 15 1.82127C14.4369 2.06957 13.8401 2.23322 13.2291 2.3069C13.8727 1.92219 14.3547 1.31687 14.5856 0.603462C13.9809 0.961704 13.3191 1.21319 12.6291 1.3469C12.1652 0.85286 11.5513 0.525573 10.8826 0.415735C10.2138 0.305897 9.52755 0.419639 8.93 0.739341C8.33246 1.05904 7.85701 1.56686 7.5773 2.18414C7.29759 2.80142 7.22923 3.49371 7.38281 4.15378C6.15913 4.09242 4.96202 3.77453 3.8691 3.22072C2.77619 2.66692 1.81189 1.88957 1.03875 0.939087C0.646256 1.61698 0.526475 2.41884 0.703731 3.18184C0.880986 3.94484 1.34199 4.61177 1.99312 5.04721C1.50519 5.03063 1.02799 4.89961 0.6 4.66471V4.7069C0.600841 5.41704 0.846851 6.10511 1.29644 6.6548C1.74604 7.20449 2.37164 7.58209 3.0675 7.72378C2.80337 7.79654 2.53053 7.83281 2.25656 7.83159C2.06342 7.83217 1.87067 7.81428 1.68094 7.77815C1.87761 8.38945 2.26057 8.92393 2.77617 9.30672C3.29177 9.68951 3.91419 9.90145 4.55625 9.91284C3.46552 10.7695 2.11819 11.2342 0.73125 11.2319C0.486863 11.2329 0.242647 11.2188 0 11.1897C1.40767 12.0871 3.04247 12.5637 4.71187 12.5632Z" fill="white"/>
</svg>
