<svg width="15" height="16" viewBox="0 0 15 16" fill="none" xmlns="http://www.w3.org/2000/svg">
<path d="M7.5 0.5C3.35625 0.5 0 3.85625 0 8C0 11.3188 2.14687 14.1219 5.12812 15.1156C5.50312 15.1813 5.64375 14.9563 5.64375 14.7594C5.64375 14.5813 5.63438 13.9906 5.63438 13.3625C3.75 13.7094 3.2625 12.9031 3.1125 12.4812C3.02813 12.2656 2.6625 11.6 2.34375 11.4219C2.08125 11.2812 1.70625 10.9344 2.33437 10.925C2.925 10.9156 3.34687 11.4688 3.4875 11.6937C4.1625 12.8281 5.24063 12.5094 5.67188 12.3125C5.7375 11.825 5.93437 11.4969 6.15 11.3094C4.48125 11.1219 2.7375 10.475 2.7375 7.60625C2.7375 6.79063 3.02813 6.11562 3.50625 5.59062C3.43125 5.40312 3.16875 4.63438 3.58125 3.60312C3.58125 3.60312 4.20937 3.40625 5.64375 4.37188C6.24375 4.20312 6.88125 4.11875 7.51875 4.11875C8.15625 4.11875 8.79375 4.20312 9.39375 4.37188C10.8281 3.39688 11.4563 3.60312 11.4563 3.60312C11.8688 4.63438 11.6062 5.40312 11.5312 5.59062C12.0094 6.11562 12.3 6.78125 12.3 7.60625C12.3 10.4844 10.5469 11.1219 8.87813 11.3094C9.15 11.5437 9.38438 11.9938 9.38438 12.6969C9.38438 13.7 9.375 14.5063 9.375 14.7594C9.375 14.9563 9.51562 15.1906 9.89062 15.1156C11.3796 14.6131 12.6734 13.6563 13.59 12.3798C14.5066 11.1033 14.9997 9.57147 15 8C15 3.85625 11.6438 0.5 7.5 0.5Z" fill="white"/>
</svg>
