<svg width="8" height="343" viewBox="0 0 8 343" fill="none" xmlns="http://www.w3.org/2000/svg">
<path d="M4 0.113249L1.11325 3L4 5.88675L6.88675 3L4 0.113249ZM3.64643 342.354C3.84169 342.549 4.15828 342.549 4.35354 342.354L7.53552 339.172C7.73078 338.976 7.73078 338.66 7.53552 338.464C7.34026 338.269 7.02367 338.269 6.82841 338.464L3.99999 341.293L1.17156 338.464C0.976296 338.269 0.659714 338.269 0.464451 338.464C0.269189 338.66 0.269189 338.976 0.464451 339.172L3.64643 342.354ZM3.5 3L3.5 7.98529L4.5 7.98529L4.5 3L3.5 3ZM3.5 17.9559L3.5 27.9265L4.5 27.9265L4.5 17.9559L3.5 17.9559ZM3.5 37.8971L3.5 47.8677L4.5 47.8677L4.5 37.8971L3.5 37.8971ZM3.5 57.8382L3.5 67.8088L4.5 67.8088L4.5 57.8382L3.5 57.8382ZM3.5 77.7794L3.5 87.75L4.5 87.75L4.5 77.7794L3.5 77.7794ZM3.5 97.7206L3.5 107.691L4.5 107.691L4.5 97.7206L3.5 97.7206ZM3.49999 117.662L3.49999 127.632L4.49999 127.632L4.49999 117.662L3.49999 117.662ZM3.49999 137.603L3.49999 147.574L4.49999 147.574L4.49999 137.603L3.49999 137.603ZM3.49999 157.544L3.49999 167.515L4.49999 167.515L4.49999 157.544L3.49999 157.544ZM3.49999 177.485L3.49999 187.456L4.49999 187.456L4.49999 177.485L3.49999 177.485ZM3.49999 197.426L3.49999 207.397L4.49999 207.397L4.49999 197.426L3.49999 197.426ZM3.49999 217.368L3.49999 227.338L4.49999 227.338L4.49999 217.368L3.49999 217.368ZM3.49999 237.309L3.49999 247.279L4.49999 247.279L4.49999 237.309L3.49999 237.309ZM3.49999 257.25L3.49999 267.221L4.49999 267.221L4.49999 257.25L3.49999 257.25ZM3.49999 277.191L3.49999 287.162L4.49999 287.162L4.49999 277.191L3.49999 277.191ZM3.49999 297.132L3.49999 307.103L4.49999 307.103L4.49999 297.132L3.49999 297.132ZM3.49999 317.073L3.49999 327.044L4.49999 327.044L4.49999 317.073L3.49999 317.073ZM3.49999 337.015L3.49999 342L4.49999 342L4.49999 337.015L3.49999 337.015Z" fill="#FF8A06"/>
</svg>
