<svg width="16" height="16" viewBox="0 0 16 16" fill="none" xmlns="http://www.w3.org/2000/svg">
<path d="M7.83301 0.5C3.68926 0.5 0.333008 3.85625 0.333008 8C0.333008 11.3187 2.47988 14.1219 5.46113 15.1156C5.83613 15.1813 5.97676 14.9563 5.97676 14.7594C5.97676 14.5813 5.96738 13.9906 5.96738 13.3625C4.08301 13.7094 3.59551 12.9031 3.44551 12.4812C3.36113 12.2656 2.99551 11.6 2.67676 11.4219C2.41426 11.2812 2.03926 10.9344 2.66738 10.925C3.25801 10.9156 3.67988 11.4687 3.82051 11.6937C4.49551 12.8281 5.57363 12.5094 6.00488 12.3125C6.07051 11.825 6.26738 11.4969 6.48301 11.3094C4.81426 11.1219 3.07051 10.475 3.07051 7.60625C3.07051 6.79062 3.36113 6.11562 3.83926 5.59062C3.76426 5.40312 3.50176 4.63437 3.91426 3.60312C3.91426 3.60312 4.54238 3.40625 5.97676 4.37188C6.57676 4.20313 7.21426 4.11875 7.85176 4.11875C8.48926 4.11875 9.12676 4.20313 9.72676 4.37188C11.1611 3.39688 11.7893 3.60312 11.7893 3.60312C12.2018 4.63437 11.9393 5.40312 11.8643 5.59062C12.3424 6.11562 12.633 6.78125 12.633 7.60625C12.633 10.4844 10.8799 11.1219 9.21113 11.3094C9.48301 11.5437 9.71738 11.9938 9.71738 12.6969C9.71738 13.7 9.70801 14.5063 9.70801 14.7594C9.70801 14.9563 9.84863 15.1906 10.2236 15.1156C11.7126 14.6131 13.0065 13.6563 13.923 12.3798C14.8396 11.1033 15.3327 9.57147 15.333 8C15.333 3.85625 11.9768 0.5 7.83301 0.5Z" fill="white"/>
</svg>
