<svg width="16" height="13" viewBox="0 0 16 13" fill="none" xmlns="http://www.w3.org/2000/svg">
<path d="M5.04488 12.5632C10.7055 12.5632 13.8021 7.87284 13.8021 3.81252C13.8021 3.68127 13.8021 3.54815 13.7964 3.4169C14.3993 2.98048 14.9196 2.44017 15.333 1.82127C14.7699 2.06957 14.1731 2.23322 13.5621 2.3069C14.2057 1.92219 14.6877 1.31687 14.9186 0.603462C14.3139 0.961704 13.6521 1.21319 12.9621 1.3469C12.4982 0.85286 11.8843 0.525573 11.2156 0.415735C10.5469 0.305897 9.86056 0.419639 9.26301 0.739341C8.66547 1.05904 8.19001 1.56686 7.9103 2.18414C7.6306 2.80142 7.56224 3.49371 7.71582 4.15378C6.49214 4.09242 5.29502 3.77453 4.20211 3.22072C3.1092 2.66692 2.1449 1.88957 1.37176 0.939087C0.979264 1.61698 0.859483 2.41884 1.03674 3.18184C1.21399 3.94484 1.675 4.61177 2.32613 5.04721C1.8382 5.03064 1.361 4.89961 0.933008 4.66471V4.7069C0.933849 5.41704 1.17986 6.10511 1.62945 6.6548C2.07905 7.20449 2.70465 7.58209 3.40051 7.72378C3.13638 7.79654 2.86354 7.83281 2.58957 7.83159C2.39643 7.83217 2.20368 7.81428 2.01395 7.77815C2.21062 8.38945 2.59358 8.92393 3.10918 9.30672C3.62478 9.68951 4.2472 9.90145 4.88926 9.91284C3.79853 10.7695 2.4512 11.2342 1.06426 11.2319C0.819871 11.2329 0.575654 11.2188 0.333008 11.1897C1.74068 12.0871 3.37547 12.5637 5.04488 12.5632Z" fill="white"/>
</svg>
