<svg width="16" height="15" viewBox="0 0 16 15" fill="none" xmlns="http://www.w3.org/2000/svg">
<path d="M7.83398 0.220703C3.69023 0.220703 0.333984 3.57695 0.333984 7.7207C0.333984 11.0395 2.48086 13.8426 5.46211 14.8363C5.83711 14.902 5.97773 14.677 5.97773 14.4801C5.97773 14.302 5.96836 13.7113 5.96836 13.0832C4.08398 13.4301 3.59648 12.6238 3.44648 12.202C3.36211 11.9863 2.99648 11.3207 2.67773 11.1426C2.41523 11.002 2.04023 10.6551 2.66836 10.6457C3.25898 10.6363 3.68086 11.1895 3.82148 11.4145C4.49648 12.5488 5.57461 12.2301 6.00586 12.0332C6.07148 11.5457 6.26836 11.2176 6.48398 11.0301C4.81523 10.8426 3.07148 10.1957 3.07148 7.32695C3.07148 6.51133 3.36211 5.83633 3.84023 5.31133C3.76523 5.12383 3.50273 4.35508 3.91523 3.32383C3.91523 3.32383 4.54336 3.12695 5.97773 4.09258C6.57773 3.92383 7.21523 3.83945 7.85273 3.83945C8.49023 3.83945 9.12773 3.92383 9.72773 4.09258C11.1621 3.11758 11.7902 3.32383 11.7902 3.32383C12.2027 4.35508 11.9402 5.12383 11.8652 5.31133C12.3434 5.83633 12.634 6.50195 12.634 7.32695C12.634 10.2051 10.8809 10.8426 9.21211 11.0301C9.48398 11.2645 9.71836 11.7145 9.71836 12.4176C9.71836 13.4207 9.70898 14.227 9.70898 14.4801C9.70898 14.677 9.84961 14.9113 10.2246 14.8363C11.7136 14.3338 13.0074 13.377 13.924 12.1005C14.8406 10.824 15.3337 9.29218 15.334 7.7207C15.334 3.57695 11.9777 0.220703 7.83398 0.220703Z" fill="white"/>
</svg>
