<svg width="15" height="12" viewBox="0 0 15 12" fill="none" xmlns="http://www.w3.org/2000/svg">
<path d="M12.2937 1.6368C12.2899 1.62937 12.2835 1.62356 12.2758 1.62039C11.3823 1.21044 10.4394 0.918106 9.47064 0.750717C9.46184 0.749081 9.45275 0.750261 9.44466 0.75409C9.43657 0.757919 9.42989 0.764202 9.42557 0.772045C9.29718 1.00508 9.18062 1.24445 9.07636 1.48923C8.03213 1.33072 6.96997 1.33072 5.92575 1.48923C5.82079 1.24383 5.70237 1.0044 5.57102 0.772045C5.56652 0.764373 5.5598 0.758234 5.55176 0.75443C5.54372 0.750626 5.53472 0.749332 5.52593 0.750717C4.55711 0.917754 3.61414 1.21011 2.72074 1.62041C2.71309 1.62365 2.70664 1.62919 2.70227 1.63626C0.915653 4.30433 0.426231 6.90681 0.666325 9.47706C0.667 9.48336 0.668936 9.48946 0.672016 9.49499C0.675096 9.50053 0.679258 9.50539 0.684255 9.50929C1.72459 10.2796 2.88821 10.8675 4.12547 11.2481C4.13418 11.2507 4.14348 11.2506 4.15213 11.2478C4.16077 11.2449 4.16834 11.2395 4.17382 11.2322C4.43955 10.8707 4.67502 10.4878 4.87781 10.0875C4.8806 10.082 4.88219 10.076 4.88248 10.0698C4.88277 10.0637 4.88175 10.0576 4.87949 10.0518C4.87724 10.0461 4.87379 10.0409 4.86939 10.0366C4.86498 10.0323 4.85971 10.029 4.85393 10.0269C4.48262 9.88479 4.12315 9.71352 3.7789 9.51468C3.77264 9.511 3.76739 9.50584 3.7636 9.49965C3.75982 9.49347 3.75761 9.48644 3.75718 9.4792C3.75675 9.47196 3.75811 9.46472 3.76115 9.45813C3.76418 9.45154 3.76878 9.4458 3.77456 9.44141C3.84679 9.38729 3.91907 9.331 3.98805 9.27414C3.99418 9.26909 4.0016 9.26585 4.00946 9.2648C4.01733 9.26373 4.02534 9.26489 4.03258 9.26814C6.28795 10.2974 8.72969 10.2974 10.9584 9.26814C10.9656 9.26469 10.9737 9.26337 10.9817 9.26433C10.9897 9.2653 10.9972 9.26851 11.0035 9.2736C11.0725 9.33046 11.1447 9.38729 11.2175 9.44141C11.2233 9.44576 11.2279 9.45146 11.231 9.45803C11.2341 9.46459 11.2355 9.47182 11.2351 9.47906C11.2348 9.4863 11.2326 9.49334 11.2289 9.49955C11.2251 9.50576 11.2199 9.51096 11.2137 9.51468C10.8702 9.7152 10.5104 9.88635 10.1381 10.0263C10.1324 10.0285 10.1271 10.0319 10.1227 10.0363C10.1184 10.0407 10.1149 10.0459 10.1127 10.0517C10.1105 10.0574 10.1096 10.0636 10.1099 10.0698C10.1102 10.076 10.1119 10.082 10.1147 10.0875C10.3209 10.4856 10.556 10.868 10.8182 11.2316C10.8235 11.2391 10.831 11.2447 10.8397 11.2476C10.8484 11.2506 10.8577 11.2507 10.8665 11.248C12.106 10.8688 13.2716 10.2807 14.3133 9.50929C14.3184 9.50558 14.3226 9.50084 14.3257 9.49538C14.3288 9.48991 14.3306 9.48385 14.3312 9.4776C14.6186 6.50612 13.85 3.92497 12.2937 1.6368ZM5.21463 7.91204C4.5356 7.91204 3.9761 7.28891 3.9761 6.52363C3.9761 5.75835 4.52475 5.13517 5.21463 5.13517C5.9099 5.13517 6.46399 5.76376 6.45314 6.52358C6.45314 7.28891 5.90447 7.91204 5.21463 7.91204ZM9.79385 7.91204C9.11484 7.91204 8.55534 7.28891 8.55534 6.52363C8.55534 5.75835 9.10399 5.13517 9.79385 5.13517C10.4892 5.13517 11.0432 5.76376 11.0324 6.52358C11.0324 7.28891 10.4892 7.91204 9.79385 7.91204Z" fill="white"/>
</svg>
