<svg width="15" height="11" viewBox="0 0 15 11" fill="none" xmlns="http://www.w3.org/2000/svg">
<path d="M11.9597 1.3575C11.9559 1.35008 11.9495 1.34426 11.9418 1.34109C11.0483 0.931138 10.1054 0.638809 9.13666 0.47142C9.12786 0.469784 9.11877 0.470964 9.11068 0.474793C9.10258 0.478622 9.09591 0.484905 9.09159 0.492748C8.96319 0.725785 8.84664 0.965152 8.74237 1.20994C7.69815 1.05142 6.63598 1.05142 5.59176 1.20994C5.4868 0.96453 5.36838 0.725103 5.23704 0.492748C5.23253 0.485076 5.22582 0.478938 5.21778 0.475133C5.20973 0.471329 5.20073 0.470035 5.19194 0.47142C4.22312 0.638458 3.28015 0.930809 2.38675 1.34112C2.37911 1.34436 2.37265 1.34989 2.36829 1.35696C0.581669 4.02504 0.0922467 6.62751 0.33234 9.19776C0.333016 9.20406 0.334951 9.21016 0.338031 9.2157C0.341112 9.22123 0.345274 9.22609 0.35027 9.22999C1.3906 10.0003 2.55422 10.5882 3.79148 10.9688C3.80019 10.9714 3.8095 10.9713 3.81814 10.9685C3.82679 10.9656 3.83436 10.9602 3.83983 10.953C4.10557 10.5914 4.34103 10.2085 4.54382 9.80822C4.54661 9.80272 4.5482 9.7967 4.54849 9.79055C4.54878 9.7844 4.54777 9.77825 4.54551 9.77252C4.54325 9.76679 4.53981 9.7616 4.5354 9.7573C4.53099 9.753 4.52573 9.74968 4.51994 9.74756C4.14864 9.60549 3.78917 9.43423 3.44491 9.23538C3.43866 9.2317 3.43341 9.22654 3.42962 9.22036C3.42583 9.21417 3.42363 9.20715 3.4232 9.1999C3.42277 9.19266 3.42413 9.18543 3.42716 9.17884C3.43019 9.17225 3.4348 9.1665 3.44058 9.16211C3.51281 9.108 3.58509 9.0517 3.65407 8.99484C3.66019 8.98979 3.66761 8.98656 3.67548 8.9855C3.68335 8.98444 3.69135 8.9856 3.6986 8.98884C5.95397 10.0181 8.39571 10.0181 10.6244 8.98884C10.6316 8.98539 10.6397 8.98407 10.6477 8.98504C10.6557 8.986 10.6632 8.98922 10.6695 8.9943C10.7385 9.05116 10.8107 9.108 10.8835 9.16211C10.8893 9.16646 10.894 9.17216 10.897 9.17873C10.9001 9.1853 10.9015 9.19252 10.9012 9.19976C10.9008 9.207 10.8986 9.21404 10.8949 9.22025C10.8911 9.22647 10.8859 9.23166 10.8797 9.23538C10.5362 9.4359 10.1764 9.60705 9.80416 9.74702C9.79838 9.74922 9.79313 9.75262 9.78875 9.75699C9.78437 9.76135 9.78096 9.7666 9.77875 9.77238C9.77654 9.77815 9.77557 9.78433 9.77591 9.79051C9.77625 9.79668 9.77789 9.80272 9.78072 9.80822C9.98691 10.2063 10.222 10.5887 10.4842 10.9523C10.4895 10.9598 10.497 10.9654 10.5057 10.9683C10.5144 10.9713 10.5238 10.9714 10.5325 10.9687C11.772 10.5895 12.9377 10.0014 13.9793 9.22999C13.9844 9.22629 13.9886 9.22155 13.9917 9.21608C13.9948 9.21062 13.9967 9.20456 13.9972 9.1983C14.2847 6.22683 13.516 3.64568 11.9597 1.3575ZM4.88065 7.63275C4.20161 7.63275 3.64211 7.00962 3.64211 6.24433C3.64211 5.47905 4.19076 4.85587 4.88065 4.85587C5.57592 4.85587 6.13 5.48447 6.11915 6.24429C6.11915 7.00961 5.57048 7.63275 4.88065 7.63275ZM9.45986 7.63275C8.78086 7.63275 8.22136 7.00962 8.22136 6.24433C8.22136 5.47905 8.77 4.85587 9.45986 4.85587C10.1552 4.85587 10.7092 5.48447 10.6984 6.24429C10.6984 7.00961 10.1552 7.63275 9.45986 7.63275Z" fill="white"/>
</svg>
