<svg width="16" height="16" viewBox="0 0 16 16" fill="none" xmlns="http://www.w3.org/2000/svg">
<path d="M8.16699 0.5C4.02324 0.5 0.666992 3.85625 0.666992 8C0.666992 11.3187 2.81387 14.1219 5.79512 15.1156C6.17012 15.1813 6.31074 14.9563 6.31074 14.7594C6.31074 14.5813 6.30137 13.9906 6.30137 13.3625C4.41699 13.7094 3.92949 12.9031 3.77949 12.4812C3.69512 12.2656 3.32949 11.6 3.01074 11.4219C2.74824 11.2812 2.37324 10.9344 3.00137 10.925C3.59199 10.9156 4.01387 11.4687 4.15449 11.6937C4.82949 12.8281 5.90762 12.5094 6.33887 12.3125C6.40449 11.825 6.60137 11.4969 6.81699 11.3094C5.14824 11.1219 3.40449 10.475 3.40449 7.60625C3.40449 6.79062 3.69512 6.11562 4.17324 5.59062C4.09824 5.40312 3.83574 4.63437 4.24824 3.60312C4.24824 3.60312 4.87637 3.40625 6.31074 4.37188C6.91074 4.20313 7.54824 4.11875 8.18574 4.11875C8.82324 4.11875 9.46074 4.20313 10.0607 4.37188C11.4951 3.39688 12.1232 3.60312 12.1232 3.60312C12.5357 4.63437 12.2732 5.40312 12.1982 5.59062C12.6764 6.11562 12.967 6.78125 12.967 7.60625C12.967 10.4844 11.2139 11.1219 9.54512 11.3094C9.81699 11.5437 10.0514 11.9938 10.0514 12.6969C10.0514 13.7 10.042 14.5063 10.042 14.7594C10.042 14.9563 10.1826 15.1906 10.5576 15.1156C12.0466 14.6131 13.3404 13.6563 14.257 12.3798C15.1736 11.1033 15.6667 9.57147 15.667 8C15.667 3.85625 12.3107 0.5 8.16699 0.5Z" fill="white"/>
</svg>
