<svg width="16" height="13" viewBox="0 0 16 13" fill="none" xmlns="http://www.w3.org/2000/svg">
<path d="M5.37789 12.2839C11.0385 12.2839 14.1351 7.59354 14.1351 3.53323C14.1351 3.40198 14.1351 3.26885 14.1295 3.1376C14.7323 2.70118 15.2526 2.16087 15.666 1.54198C15.1029 1.79028 14.5061 1.95392 13.8951 2.0276C14.5387 1.64289 15.0208 1.03757 15.2516 0.324165C14.6469 0.682407 13.9851 0.933891 13.2951 1.0676C12.8312 0.573563 12.2173 0.246276 11.5486 0.136438C10.8799 0.0266004 10.1936 0.140342 9.59602 0.460044C8.99847 0.779747 8.52302 1.28757 8.24331 1.90485C7.9636 2.52213 7.89525 3.21442 8.04883 3.87448C6.82515 3.81312 5.62803 3.49523 4.53512 2.94142C3.44221 2.38762 2.47791 1.61027 1.70477 0.65979C1.31227 1.33768 1.19249 2.13954 1.36975 2.90254C1.547 3.66554 2.008 4.33248 2.65914 4.76792C2.17121 4.75134 1.694 4.62032 1.26602 4.38542V4.4276C1.26686 5.13774 1.51287 5.82581 1.96246 6.3755C2.41205 6.9252 3.03765 7.3028 3.73352 7.44448C3.46939 7.51724 3.19654 7.55352 2.92258 7.55229C2.72944 7.55288 2.53668 7.53498 2.34695 7.49885C2.54363 8.11016 2.92658 8.64463 3.44218 9.02743C3.95778 9.41022 4.5802 9.62215 5.22227 9.63354C4.13154 10.4902 2.7842 10.9549 1.39727 10.9526C1.15288 10.9536 0.908662 10.9395 0.666016 10.9104C2.07369 11.8079 3.70848 12.2844 5.37789 12.2839Z" fill="white"/>
</svg>
