<svg width="15" height="12" viewBox="0 0 15 12" fill="none" xmlns="http://www.w3.org/2000/svg">
<path d="M12.1238 1.6368C12.1199 1.62937 12.1136 1.62356 12.1059 1.62039C11.2124 1.21044 10.2694 0.918106 9.30072 0.750717C9.29192 0.749081 9.28283 0.750261 9.27474 0.75409C9.26665 0.757919 9.25997 0.764202 9.25565 0.772045C9.12726 1.00508 9.0107 1.24445 8.90643 1.48923C7.86221 1.33072 6.80005 1.33072 5.75583 1.48923C5.65087 1.24383 5.53244 1.0044 5.4011 0.772045C5.39659 0.764373 5.38988 0.758234 5.38184 0.75443C5.3738 0.750626 5.36479 0.749332 5.356 0.750717C4.38719 0.917754 3.44421 1.21011 2.55082 1.62041C2.54317 1.62365 2.53672 1.62919 2.53235 1.63626C0.745731 4.30433 0.256309 6.90681 0.496403 9.47706C0.497078 9.48336 0.499014 9.48946 0.502094 9.49499C0.505174 9.50053 0.509336 9.50539 0.514333 9.50929C1.55466 10.2796 2.71829 10.8675 3.95554 11.2481C3.96426 11.2507 3.97356 11.2506 3.98221 11.2478C3.99085 11.2449 3.99842 11.2395 4.0039 11.2322C4.26963 10.8707 4.50509 10.4878 4.70789 10.0875C4.71067 10.082 4.71227 10.076 4.71256 10.0698C4.71285 10.0637 4.71183 10.0576 4.70957 10.0518C4.70732 10.0461 4.70387 10.0409 4.69946 10.0366C4.69506 10.0323 4.68979 10.029 4.684 10.0269C4.3127 9.88479 3.95323 9.71352 3.60897 9.51468C3.60272 9.511 3.59747 9.50584 3.59368 9.49965C3.58989 9.49347 3.58769 9.48644 3.58726 9.4792C3.58683 9.47196 3.58819 9.46472 3.59122 9.45813C3.59425 9.45154 3.59886 9.4458 3.60464 9.44141C3.67687 9.38729 3.74915 9.331 3.81813 9.27414C3.82426 9.26909 3.83167 9.26585 3.83954 9.2648C3.84741 9.26373 3.85542 9.26489 3.86266 9.26814C6.11803 10.2974 8.55977 10.2974 10.7884 9.26814C10.7957 9.26469 10.8038 9.26337 10.8118 9.26433C10.8198 9.2653 10.8273 9.26851 10.8335 9.2736C10.9025 9.33046 10.9748 9.38729 11.0476 9.44141C11.0534 9.44576 11.058 9.45146 11.0611 9.45803C11.0642 9.46459 11.0656 9.47182 11.0652 9.47906C11.0648 9.4863 11.0627 9.49334 11.0589 9.49955C11.0552 9.50576 11.05 9.51096 11.0438 9.51468C10.7003 9.7152 10.3405 9.88635 9.96822 10.0263C9.96244 10.0285 9.95719 10.0319 9.95281 10.0363C9.94843 10.0407 9.94503 10.0459 9.94281 10.0517C9.9406 10.0574 9.93963 10.0636 9.93997 10.0698C9.94031 10.076 9.94195 10.082 9.94479 10.0875C10.151 10.4856 10.3861 10.868 10.6482 11.2316C10.6536 11.2391 10.6611 11.2447 10.6698 11.2476C10.6784 11.2506 10.6878 11.2507 10.6966 11.248C11.9361 10.8688 13.1017 10.2807 14.1434 9.50929C14.1484 9.50558 14.1527 9.50084 14.1557 9.49538C14.1588 9.48991 14.1607 9.48385 14.1613 9.4776C14.4487 6.50612 13.6801 3.92497 12.1238 1.6368ZM5.04471 7.91204C4.36568 7.91204 3.80618 7.28891 3.80618 6.52363C3.80618 5.75835 4.35482 5.13517 5.04471 5.13517C5.73998 5.13517 6.29407 5.76376 6.28322 6.52358C6.28322 7.28891 5.73454 7.91204 5.04471 7.91204ZM9.62393 7.91204C8.94492 7.91204 8.38542 7.28891 8.38542 6.52363C8.38542 5.75835 8.93407 5.13517 9.62393 5.13517C10.3192 5.13517 10.8733 5.76376 10.8625 6.52358C10.8625 7.28891 10.3192 7.91204 9.62393 7.91204Z" fill="white"/>
</svg>
