<svg width="16" height="15" viewBox="0 0 16 15" fill="none" xmlns="http://www.w3.org/2000/svg">
<path d="M8.16602 0.220703C4.02227 0.220703 0.666016 3.57695 0.666016 7.7207C0.666016 11.0395 2.81289 13.8426 5.79414 14.8363C6.16914 14.902 6.30977 14.677 6.30977 14.4801C6.30977 14.302 6.30039 13.7113 6.30039 13.0832C4.41602 13.4301 3.92852 12.6238 3.77852 12.202C3.69414 11.9863 3.32852 11.3207 3.00977 11.1426C2.74727 11.002 2.37227 10.6551 3.00039 10.6457C3.59102 10.6363 4.01289 11.1895 4.15352 11.4145C4.82852 12.5488 5.90664 12.2301 6.33789 12.0332C6.40352 11.5457 6.60039 11.2176 6.81602 11.0301C5.14727 10.8426 3.40352 10.1957 3.40352 7.32695C3.40352 6.51133 3.69414 5.83633 4.17227 5.31133C4.09727 5.12383 3.83477 4.35508 4.24727 3.32383C4.24727 3.32383 4.87539 3.12695 6.30977 4.09258C6.90977 3.92383 7.54727 3.83945 8.18477 3.83945C8.82227 3.83945 9.45977 3.92383 10.0598 4.09258C11.4941 3.11758 12.1223 3.32383 12.1223 3.32383C12.5348 4.35508 12.2723 5.12383 12.1973 5.31133C12.6754 5.83633 12.966 6.50195 12.966 7.32695C12.966 10.2051 11.2129 10.8426 9.54414 11.0301C9.81602 11.2645 10.0504 11.7145 10.0504 12.4176C10.0504 13.4207 10.041 14.227 10.041 14.4801C10.041 14.677 10.1816 14.9113 10.5566 14.8363C12.0456 14.3338 13.3395 13.377 14.256 12.1005C15.1726 10.824 15.6658 9.29218 15.666 7.7207C15.666 3.57695 12.3098 0.220703 8.16602 0.220703Z" fill="white"/>
</svg>
