<svg width="16" height="13" viewBox="0 0 16 13" fill="none" xmlns="http://www.w3.org/2000/svg">
<path d="M5.54195 12.5622C11.2026 12.5622 14.2991 7.87186 14.2991 3.81155C14.2991 3.6803 14.2991 3.54717 14.2935 3.41592C14.8964 2.9795 15.4167 2.43919 15.8301 1.8203C15.2669 2.0686 14.6702 2.23224 14.0591 2.30592C14.7028 1.92121 15.1848 1.31589 15.4157 0.602486C14.811 0.960727 14.1492 1.21221 13.4591 1.34592C12.9952 0.851883 12.3814 0.524596 11.7127 0.414758C11.0439 0.304921 10.3576 0.418662 9.76008 0.738364C9.16254 1.05807 8.68708 1.56589 8.40737 2.18317C8.12767 2.80045 8.05931 3.49274 8.21289 4.1528C6.98921 4.09144 5.79209 3.77355 4.69918 3.21974C3.60627 2.66594 2.64197 1.88859 1.86883 0.938111C1.47633 1.616 1.35655 2.41786 1.53381 3.18086C1.71106 3.94386 2.17207 4.6108 2.8232 5.04624C2.33527 5.02966 1.85807 4.89864 1.43008 4.66374V4.70592C1.43092 5.41606 1.67693 6.10413 2.12652 6.65382C2.57612 7.20352 3.20172 7.58112 3.89758 7.7228C3.63345 7.79556 3.36061 7.83184 3.08664 7.83061C2.8935 7.8312 2.70075 7.8133 2.51102 7.77717C2.70769 8.38848 3.09065 8.92295 3.60625 9.30575C4.12185 9.68854 4.74427 9.90047 5.38633 9.91186C4.2956 10.7685 2.94827 11.2332 1.56133 11.2309C1.31694 11.232 1.07272 11.2179 0.830078 11.1887C2.23775 12.0862 3.87254 12.5627 5.54195 12.5622Z" fill="white"/>
</svg>
