<svg width="8" height="169" viewBox="0 0 8 169" fill="none" xmlns="http://www.w3.org/2000/svg">
<path d="M4 0.613249L1.11325 3.5L4 6.38675L6.88675 3.5L4 0.613249ZM3.64644 168.854C3.8417 169.049 4.15828 169.049 4.35355 168.854L7.53553 165.672C7.73079 165.476 7.73079 165.16 7.53553 164.964C7.34026 164.769 7.02368 164.769 6.82842 164.964L3.99999 167.793L1.17157 164.964C0.976304 164.769 0.659721 164.769 0.464459 164.964C0.269197 165.16 0.269197 165.476 0.464459 165.672L3.64644 168.854ZM3.5 3.5L3.5 8.65625L4.5 8.65625L4.5 3.5L3.5 3.5ZM3.5 18.9688L3.5 29.2813L4.5 29.2813L4.5 18.9688L3.5 18.9688ZM3.5 39.5938L3.5 49.9063L4.5 49.9063L4.5 39.5938L3.5 39.5938ZM3.5 60.2188L3.5 70.5313L4.5 70.5313L4.5 60.2188L3.5 60.2188ZM3.5 80.8438L3.5 91.1563L4.5 91.1563L4.5 80.8438L3.5 80.8438ZM3.5 101.469L3.5 111.781L4.5 111.781L4.5 101.469L3.5 101.469ZM3.49999 122.094L3.49999 132.406L4.49999 132.406L4.49999 122.094L3.49999 122.094ZM3.49999 142.719L3.49999 153.031L4.49999 153.031L4.49999 142.719L3.49999 142.719ZM3.49999 163.344L3.49999 168.5L4.49999 168.5L4.49999 163.344L3.49999 163.344Z" fill="#FF8A06"/>
</svg>
