<svg width="8" height="215" viewBox="0 0 8 215" fill="none" xmlns="http://www.w3.org/2000/svg">
<path d="M4 0.113249L1.11325 3L4 5.88675L6.88675 3L4 0.113249ZM3.64644 214.354C3.8417 214.549 4.15828 214.549 4.35354 214.354L7.53552 211.172C7.73079 210.976 7.73079 210.66 7.53552 210.464C7.34026 210.269 7.02368 210.269 6.82842 210.464L3.99999 213.293L1.17156 210.464C0.976302 210.269 0.659719 210.269 0.464457 210.464C0.269195 210.66 0.269195 210.976 0.464457 211.172L3.64644 214.354ZM3.5 3L3.5 7.79545L4.5 7.79545L4.5 3L3.5 3ZM3.5 17.3864L3.5 26.9773L4.5 26.9773L4.5 17.3864L3.5 17.3864ZM3.5 36.5682L3.5 46.1591L4.5 46.1591L4.5 36.5682L3.5 36.5682ZM3.5 55.75L3.5 65.3409L4.5 65.3409L4.5 55.75L3.5 55.75ZM3.5 74.9318L3.5 84.5227L4.5 84.5227L4.5 74.9318L3.5 74.9318ZM3.5 94.1136L3.5 103.705L4.5 103.705L4.5 94.1136L3.5 94.1136ZM3.5 113.295L3.49999 122.886L4.49999 122.886L4.5 113.295L3.5 113.295ZM3.49999 132.477L3.49999 142.068L4.49999 142.068L4.49999 132.477L3.49999 132.477ZM3.49999 151.659L3.49999 161.25L4.49999 161.25L4.49999 151.659L3.49999 151.659ZM3.49999 170.841L3.49999 180.432L4.49999 180.432L4.49999 170.841L3.49999 170.841ZM3.49999 190.023L3.49999 199.614L4.49999 199.614L4.49999 190.023L3.49999 190.023ZM3.49999 209.205L3.49999 214L4.49999 214L4.49999 209.205L3.49999 209.205Z" fill="#FF8A06"/>
</svg>
