<svg width="16" height="10" viewBox="0 0 16 10" fill="none" xmlns="http://www.w3.org/2000/svg">
<path d="M9.29102 5C9.29102 7.32969 7.39727 9.21875 5.06008 9.21875C4.50533 9.21949 3.95586 9.11096 3.44305 8.89935C2.93024 8.68773 2.46414 8.37719 2.07135 7.98544C1.67855 7.5937 1.36677 7.12842 1.15379 6.61618C0.940814 6.10393 0.830816 5.55476 0.830078 5C0.830078 2.66938 2.72383 0.781255 5.06008 0.781255C5.61491 0.780393 6.16448 0.888837 6.67739 1.10039C7.19031 1.31195 7.65653 1.62248 8.04942 2.01424C8.44231 2.40599 8.75418 2.87131 8.96721 3.38362C9.18025 3.89592 9.29028 4.44517 9.29102 5ZM13.9316 5C13.9316 7.19375 12.9848 8.97126 11.8166 8.97126C10.6485 8.97126 9.70164 7.19282 9.70164 5C9.70164 2.80625 10.6485 1.02876 11.8166 1.02876C12.9848 1.02876 13.9316 2.80719 13.9316 5ZM15.8301 5C15.8301 6.965 15.4973 8.55782 15.0857 8.55782C14.6751 8.55782 14.3423 6.96407 14.3423 5C14.3423 3.035 14.6751 1.44219 15.0866 1.44219C15.4973 1.44219 15.8301 3.035 15.8301 5Z" fill="white"/>
</svg>
