<svg width="16" height="16" viewBox="0 0 16 16" fill="none" xmlns="http://www.w3.org/2000/svg">
<path d="M7.90625 0.5C3.7625 0.5 0.40625 3.85625 0.40625 8C0.40625 11.3188 2.55312 14.1219 5.53437 15.1156C5.90937 15.1813 6.05 14.9563 6.05 14.7594C6.05 14.5813 6.04063 13.9906 6.04063 13.3625C4.15625 13.7094 3.66875 12.9031 3.51875 12.4812C3.43438 12.2656 3.06875 11.6 2.75 11.4219C2.4875 11.2812 2.1125 10.9344 2.74062 10.925C3.33125 10.9156 3.75312 11.4688 3.89375 11.6937C4.56875 12.8281 5.64688 12.5094 6.07812 12.3125C6.14375 11.825 6.34062 11.4969 6.55625 11.3094C4.8875 11.1219 3.14375 10.475 3.14375 7.60625C3.14375 6.79063 3.43438 6.11562 3.9125 5.59062C3.8375 5.40312 3.575 4.63438 3.9875 3.60312C3.9875 3.60312 4.61562 3.40625 6.05 4.37188C6.65 4.20312 7.2875 4.11875 7.925 4.11875C8.5625 4.11875 9.2 4.20312 9.8 4.37188C11.2344 3.39688 11.8625 3.60312 11.8625 3.60312C12.275 4.63438 12.0125 5.40312 11.9375 5.59062C12.4156 6.11562 12.7063 6.78125 12.7063 7.60625C12.7063 10.4844 10.9531 11.1219 9.28438 11.3094C9.55625 11.5437 9.79063 11.9938 9.79063 12.6969C9.79063 13.7 9.78125 14.5063 9.78125 14.7594C9.78125 14.9563 9.92188 15.1906 10.2969 15.1156C11.7858 14.6131 13.0797 13.6563 13.9963 12.3798C14.9129 11.1033 15.406 9.57147 15.4062 8C15.4062 3.85625 12.05 0.5 7.90625 0.5Z" fill="white"/>
</svg>
