<svg width="18" height="18" viewBox="0 0 18 18" fill="none" xmlns="http://www.w3.org/2000/svg">
<path d="M15.65 4.60014H1.9V4.05014L14 3.08214V4.05014H15.65V2.40014C15.65 1.19014 14.67 0.34114 13.473 0.51214L2.428 2.08914C1.23 2.26014 0.25 3.39014 0.25 4.60014V15.6001C0.25 15.889 0.306905 16.1751 0.417465 16.442C0.528025 16.709 0.690076 16.9515 0.894365 17.1558C1.09865 17.3601 1.34118 17.5221 1.6081 17.6327C1.87501 17.7432 2.16109 17.8001 2.45 17.8001H15.65C15.9389 17.8001 16.225 17.7432 16.4919 17.6327C16.7588 17.5221 17.0013 17.3601 17.2056 17.1558C17.4099 16.9515 17.572 16.709 17.6825 16.442C17.7931 16.1751 17.85 15.889 17.85 15.6001V6.80014C17.85 6.21666 17.6182 5.65708 17.2056 5.2445C16.7931 4.83192 16.2335 4.60014 15.65 4.60014ZM14 12.3071C13.6177 12.3077 13.2471 12.1755 12.9514 11.9331C12.6558 11.6907 12.4535 11.3532 12.3791 10.9782C12.3047 10.6032 12.3628 10.214 12.5436 9.8771C12.7243 9.54022 13.0164 9.27654 13.37 9.13114C13.5954 9.03845 13.8385 8.99684 14.0819 9.0093C14.3252 9.02175 14.5628 9.08796 14.7776 9.20317C14.9923 9.31837 15.1789 9.47972 15.3239 9.67561C15.4688 9.87149 15.5686 10.0971 15.616 10.3361C15.6634 10.5751 15.6573 10.8217 15.5981 11.0581C15.5389 11.2945 15.428 11.5148 15.2735 11.7033C15.119 11.8917 14.9247 12.0436 14.7045 12.148C14.4843 12.2524 14.2437 12.3068 14 12.3071Z" fill="#180D68"/>
</svg>
